<svg width="128" height="128" viewBox="0 0 128 128" fill="none" xmlns="http://www.w3.org/2000/svg">
<rect width="128" height="128" rx="29" fill="url(#paint0_linear_4_3571)"/>
<path d="M90.9282 17.3612C97.623 21.2265 99.9156 29.7874 96.0503 36.4823C92.1851 43.1775 83.6251 45.4712 76.9303 41.6059C70.2356 37.7407 67.9408 29.1798 71.8061 22.4847C75.6714 15.7898 84.2335 13.4959 90.9282 17.3612Z" fill="#484849"/>
<path d="M90.8229 17.5406C97.4187 21.3489 99.6798 29.783 95.8714 36.3788C92.0629 42.9748 83.6293 45.2348 77.0335 41.4265C70.4377 37.6183 68.1766 29.1842 71.985 22.5882C75.7935 15.9924 84.2271 13.7325 90.8229 17.5406Z" fill="#D1D1D6"/>
<path fill-rule="evenodd" clip-rule="evenodd" d="M88.0945 22.2669C92.0798 24.568 93.4461 29.6644 91.145 33.6501C88.844 37.6358 83.7471 39.0013 79.7619 36.7002C75.7766 34.3992 74.4103 29.3027 76.7113 25.317C79.0124 21.3314 84.1092 19.9658 88.0945 22.2669Z" fill="#484849"/>
<path d="M64 10.1439C71.7326 10.1439 78 16.4119 78 24.1438C78 31.8758 71.7326 38.1438 64 38.1438C56.2695 38.1438 50 31.8758 50 24.1438C50 16.4119 56.2695 10.1439 64 10.1439Z" fill="#484849"/>
<path d="M63.9999 10.3533C71.6168 10.3533 77.7915 16.5276 77.7915 24.1438C77.7915 31.7602 71.6168 37.9343 63.9999 37.9343C56.3852 37.9343 50.2104 31.7602 50.2104 24.1438C50.2104 16.5276 56.3852 10.3533 63.9999 10.3533Z" fill="#D1D1D6"/>
<path fill-rule="evenodd" clip-rule="evenodd" d="M64.0001 15.8108C68.6022 15.8108 72.3348 19.5416 72.3348 24.1438C72.3348 28.7461 68.6022 32.4768 64.0001 32.4768C59.398 32.4768 55.6675 28.7461 55.6675 24.1438C55.6675 19.5416 59.398 15.8108 64.0001 15.8108Z" fill="#484849"/>
<path fill-rule="evenodd" clip-rule="evenodd" d="M37.0734 17.3613C43.7681 13.4959 52.3302 15.7898 56.1955 22.4846C60.0608 29.1798 57.766 37.7406 51.0713 41.6059C44.3765 45.4712 35.8144 43.1775 31.9492 36.4823C28.0839 29.7874 30.3786 21.2265 37.0734 17.3613Z" fill="#484849"/>
<path fill-rule="evenodd" clip-rule="evenodd" d="M37.1764 17.5406C43.7722 13.7325 52.208 15.9924 56.0143 22.5882C59.8227 29.1842 57.5638 37.6183 50.968 41.4265C44.3722 45.2347 35.9385 42.9747 32.1301 36.3787C28.3217 29.783 30.5806 21.3489 37.1764 17.5406Z" fill="#D1D1D6"/>
<path fill-rule="evenodd" clip-rule="evenodd" d="M39.9048 22.2669C43.8922 19.9658 48.9869 21.3314 51.288 25.317C53.589 29.3027 52.2248 34.3992 48.2396 36.7002C44.2522 39.0013 39.1575 37.6358 36.8564 33.6501C34.5554 29.6644 35.9196 24.568 39.9048 22.2669Z" fill="#484849"/>
<path fill-rule="evenodd" clip-rule="evenodd" d="M17.3618 37.0731C21.227 30.3781 29.787 28.0842 36.4839 31.9495C43.1786 35.815 45.4712 44.3758 41.606 51.0708C37.7407 57.7657 29.1807 60.0596 22.486 56.1943C15.7913 52.3289 13.4965 43.768 17.3618 37.0731Z" fill="#484849"/>
<path fill-rule="evenodd" clip-rule="evenodd" d="M17.5407 37.1767C21.3491 30.5807 29.7828 28.3209 36.3786 32.1289C42.9744 35.9371 45.2355 44.3712 41.427 50.9672C37.6186 57.5632 29.1849 59.823 22.5891 56.015C15.9934 52.2068 13.7323 43.7727 17.5407 37.1767Z" fill="#D1D1D6"/>
<path fill-rule="evenodd" clip-rule="evenodd" d="M22.267 39.9053C24.5681 35.9198 29.6649 34.5541 33.6502 36.8552C37.6354 39.1564 39.0017 44.2529 36.7007 48.2385C34.3996 52.224 29.3028 53.5897 25.3175 51.2886C21.3323 48.9874 19.966 43.891 22.267 39.9053Z" fill="#484849"/>
<path fill-rule="evenodd" clip-rule="evenodd" d="M10.145 64C10.145 56.268 16.4124 50 24.145 50C31.8755 50 38.145 56.268 38.145 64C38.145 71.732 31.8755 78 24.145 78C16.4124 78 10.145 71.732 10.145 64Z" fill="#484849"/>
<path fill-rule="evenodd" clip-rule="evenodd" d="M10.3535 64C10.3535 56.3836 16.5282 50.2095 24.1451 50.2095C31.7598 50.2095 37.9345 56.3836 37.9345 64C37.9345 71.6162 31.7598 77.7905 24.1451 77.7905C16.5282 77.7905 10.3535 71.6162 10.3535 64Z" fill="#D1D1D6"/>
<path fill-rule="evenodd" clip-rule="evenodd" d="M15.8125 64C15.8125 59.3977 19.543 55.6669 24.1451 55.6669C28.7472 55.6669 32.4778 59.3977 32.4778 64C32.4778 68.6021 28.7472 72.333 24.1451 72.333C19.543 72.333 15.8125 68.6021 15.8125 64Z" fill="#484849"/>
<path fill-rule="evenodd" clip-rule="evenodd" d="M17.3618 90.9267C13.4965 84.2318 15.7913 75.6709 22.486 71.8057C29.1807 67.9402 37.7407 70.2341 41.606 76.929C45.4712 83.624 43.1786 92.1848 36.4839 96.0503C29.787 99.9156 21.227 97.6217 17.3618 90.9267Z" fill="#484849"/>
<path fill-rule="evenodd" clip-rule="evenodd" d="M17.5407 90.8232C13.7323 84.2274 15.9934 75.793 22.5891 71.985C29.1849 68.1768 37.6186 70.4368 41.427 77.0326C45.2355 83.6286 42.9744 92.0627 36.3786 95.8709C29.7828 99.6789 21.3491 97.4192 17.5407 90.8232Z" fill="#D1D1D6"/>
<path fill-rule="evenodd" clip-rule="evenodd" d="M22.267 88.0945C19.966 84.1088 21.3323 79.0124 25.3175 76.7113C29.3028 74.4101 34.3996 75.7758 36.7007 79.7614C39.0017 83.7469 37.6354 88.8435 33.6502 91.1446C29.6649 93.4457 24.5681 92.0802 22.267 88.0945Z" fill="#484849"/>
<path fill-rule="evenodd" clip-rule="evenodd" d="M37.0734 110.639C30.3786 106.773 28.0839 98.2124 31.9492 91.5175C35.8144 84.8225 44.3765 82.5286 51.0713 86.3939C57.766 90.2594 60.0608 98.8202 56.1955 105.515C52.3302 112.21 43.7681 114.504 37.0734 110.639Z" fill="#484849"/>
<path fill-rule="evenodd" clip-rule="evenodd" d="M37.1764 110.459C30.5806 106.651 28.3217 98.2169 32.1301 91.6211C35.9385 85.0251 44.3722 82.7651 50.968 86.5733C57.5638 90.3815 59.8227 98.8156 56.0143 105.412C52.208 112.007 43.7722 114.267 37.1764 110.459Z" fill="#D1D1D6"/>
<path fill-rule="evenodd" clip-rule="evenodd" d="M39.9048 105.733C35.9196 103.432 34.5554 98.3353 36.8564 94.3497C39.1575 90.364 44.2522 88.9985 48.2396 91.2996C52.2248 93.6006 53.5912 98.697 51.288 102.683C48.9869 106.668 43.8922 108.034 39.9048 105.733Z" fill="#484849"/>
<path fill-rule="evenodd" clip-rule="evenodd" d="M64 117.856C56.2695 117.856 50 111.588 50 103.856C50 96.124 56.2695 89.856 64 89.856C71.7326 89.856 78 96.124 78 103.856C78 111.588 71.7326 117.856 64 117.856Z" fill="#484849"/>
<path fill-rule="evenodd" clip-rule="evenodd" d="M63.9999 117.647C56.3852 117.647 50.2104 111.472 50.2104 103.856C50.2104 96.2396 56.3852 90.0655 63.9999 90.0655C71.6168 90.0655 77.7915 96.2396 77.7915 103.856C77.7915 111.472 71.6168 117.647 63.9999 117.647Z" fill="#D1D1D6"/>
<path fill-rule="evenodd" clip-rule="evenodd" d="M64.0001 112.189C59.398 112.189 55.6675 108.458 55.6675 103.856C55.6675 99.2537 59.398 95.5229 64.0001 95.5229C68.6022 95.5229 72.3348 99.2537 72.3348 103.856C72.3348 108.458 68.6022 112.189 64.0001 112.189Z" fill="#484849"/>
<path fill-rule="evenodd" clip-rule="evenodd" d="M90.9282 110.639C84.2335 114.504 75.6714 112.21 71.8061 105.515C67.9408 98.82 70.2356 90.2594 76.9303 86.3939C83.6251 82.5286 92.1851 84.8225 96.0503 91.5175C99.9156 98.2124 97.623 106.773 90.9282 110.639Z" fill="#484849"/>
<path fill-rule="evenodd" clip-rule="evenodd" d="M90.8229 110.459C84.2271 114.267 75.7935 112.007 71.985 105.412C68.1766 98.8156 70.4377 90.3815 77.0335 86.5733C83.6293 82.7651 92.0629 85.0251 95.8714 91.6211C99.6798 98.2169 97.4187 106.651 90.8229 110.459Z" fill="#D1D1D6"/>
<path fill-rule="evenodd" clip-rule="evenodd" d="M88.0945 105.733C84.1092 108.034 79.0124 106.668 76.7113 102.683C74.4103 98.697 75.7766 93.6006 79.7619 91.2996C83.7471 88.9985 88.844 90.364 91.145 94.3497C93.4461 98.3353 92.0798 103.432 88.0945 105.733Z" fill="#484849"/>
<path d="M47.1724 56.7831C47.1724 57.0078 47.2124 57.2166 47.2924 57.4097C47.3745 57.6027 47.484 57.7711 47.6229 57.9149C47.7619 58.0587 47.9282 58.1709 48.1219 58.2518C48.3156 58.3326 48.524 58.373 48.7472 58.373C48.964 58.373 49.1682 58.3326 49.3619 58.2518C49.5535 58.1709 49.7198 58.0587 49.8587 57.9149C49.9977 57.7711 50.1114 57.605 50.1956 57.4164C50.2819 57.2278 50.324 57.0257 50.324 56.8101C50.324 56.5945 50.2819 56.3901 50.1956 56.197C50.1114 56.004 49.9977 55.8356 49.8587 55.6918C49.7198 55.548 49.5535 55.4358 49.3619 55.3549C49.1682 55.2741 48.964 55.2337 48.7472 55.2337C48.524 55.2337 48.3156 55.2741 48.1219 55.3549C47.9282 55.4358 47.7619 55.548 47.6229 55.6918C47.484 55.8356 47.3745 55.9994 47.2924 56.1836C47.2124 56.3678 47.1724 56.5676 47.1724 56.7831ZM50.244 53.3474H52.6966V60.2594H50.244V59.4914C49.7219 60.1471 49.0166 60.4749 48.1282 60.4749C47.6251 60.4749 47.1619 60.3829 46.7409 60.1987C46.3177 60.0145 45.9493 59.7564 45.6356 59.424C45.3219 59.0916 45.0756 58.7008 44.9009 58.2518C44.7261 57.8027 44.6377 57.313 44.6377 56.7831C44.6377 56.289 44.724 55.8198 44.8945 55.3751C45.0651 54.9305 45.303 54.5421 45.6082 54.2097C45.9135 53.8773 46.2777 53.6145 46.7008 53.4215C47.1219 53.2284 47.5893 53.1318 48.1008 53.1318C48.964 53.1318 49.6777 53.4326 50.244 54.0345V53.3474ZM56.7914 53.3474V60.2594H54.3535V53.3474H56.7914ZM54.1914 50.693C54.1914 50.5044 54.2272 50.3269 54.2988 50.1608C54.3703 49.9947 54.4693 49.8486 54.5956 49.7229C54.7219 49.5973 54.8672 49.4983 55.0335 49.4265C55.1998 49.3547 55.3766 49.3187 55.5661 49.3187C55.7535 49.3187 55.9324 49.3547 56.0987 49.4265C56.2651 49.4983 56.4103 49.5973 56.5366 49.7229C56.6609 49.8486 56.7598 49.9947 56.8314 50.1608C56.905 50.3269 56.9408 50.5044 56.9408 50.693C56.9408 50.8817 56.905 51.0591 56.8314 51.2253C56.7598 51.3914 56.6609 51.5375 56.5366 51.6631C56.4103 51.7888 56.2651 51.8878 56.0987 51.9596C55.9324 52.0314 55.7535 52.0674 55.5661 52.0674C55.3766 52.0674 55.1998 52.0314 55.0335 51.9596C54.8672 51.8878 54.7219 51.7888 54.5956 51.6631C54.4693 51.5375 54.3703 51.3914 54.2988 51.2253C54.2272 51.0591 54.1914 50.8817 54.1914 50.693ZM60.9009 53.3474V60.2594H58.4629V53.3474H60.9009ZM58.3009 50.693C58.3009 50.5044 58.3366 50.3269 58.4082 50.1608C58.4798 49.9947 58.5787 49.8486 58.7051 49.7229C58.8314 49.5973 58.9766 49.4983 59.143 49.4265C59.3093 49.3547 59.4861 49.3187 59.6756 49.3187C59.8629 49.3187 60.0419 49.3547 60.2082 49.4265C60.3745 49.4983 60.5198 49.5973 60.6461 49.7229C60.7703 49.8486 60.8693 49.9947 60.9408 50.1608C61.0145 50.3269 61.0503 50.5044 61.0503 50.693C61.0503 50.8817 61.0145 51.0591 60.9408 51.2253C60.8693 51.3914 60.7703 51.5375 60.6461 51.6631C60.5198 51.7888 60.3745 51.8878 60.2082 51.9596C60.0419 52.0314 59.8629 52.0674 59.6756 52.0674C59.4861 52.0674 59.3093 52.0314 59.143 51.9596C58.9766 51.8878 58.8314 51.7888 58.7051 51.6631C58.5787 51.5375 58.4798 51.3914 58.4082 51.2253C58.3366 51.0591 58.3009 50.8817 58.3009 50.693Z" fill="#D0D0D5"/>
<path d="M65.2943 55.3819V60.2593H62.8543V55.3819H62.0459V53.3473H62.8543V51.2724H65.2943V53.3473H66.6817V55.3819H65.2943ZM72.7848 55.7996C72.7048 55.4583 72.5385 55.1842 72.2859 54.9777C72.0354 54.7711 71.7301 54.6678 71.3701 54.6678C70.9933 54.6678 70.6859 54.7665 70.448 54.9642C70.208 55.1619 70.0585 55.4402 69.9954 55.7996H72.7848ZM69.928 57.2143C69.928 58.2652 70.4227 58.7907 71.4101 58.7907C71.9406 58.7907 72.3406 58.5751 72.6101 58.144H74.968C74.4922 59.7248 73.3006 60.5153 71.3975 60.5153C70.8122 60.5153 70.2796 60.4278 69.7933 60.2526C69.3091 60.0775 68.8922 59.8282 68.547 59.5048C68.2017 59.1815 67.9343 58.7951 67.7449 58.3461C67.5575 57.897 67.4627 57.3939 67.4627 56.837C67.4627 56.2621 67.5533 55.7433 67.7322 55.2808C67.9112 54.8183 68.168 54.4252 68.5006 54.1019C68.8333 53.7785 69.2354 53.5292 69.707 53.3541C70.1785 53.1789 70.7091 53.0913 71.3027 53.0913C71.8859 53.0913 72.4122 53.1789 72.8796 53.3541C73.347 53.5292 73.7407 53.7829 74.0649 54.1153C74.3891 54.4478 74.6354 54.8541 74.8059 55.3347C74.9764 55.8153 75.0628 56.3564 75.0628 56.9583V57.2143H69.928ZM78.7133 56.7831C78.7133 57.0078 78.7533 57.2166 78.8354 57.4097C78.9154 57.6027 79.0249 57.7711 79.1638 57.9149C79.3049 58.0587 79.4691 58.1709 79.6628 58.2518C79.8564 58.3326 80.0649 58.373 80.2901 58.373C80.5049 58.373 80.7091 58.3326 80.9028 58.2518C81.0964 58.1709 81.2628 58.0587 81.4017 57.9149C81.5407 57.7711 81.6522 57.605 81.7385 57.4164C81.8228 57.2278 81.867 57.0257 81.867 56.8101C81.867 56.5945 81.8228 56.3901 81.7385 56.197C81.6522 56.004 81.5407 55.8356 81.4017 55.6918C81.2628 55.548 81.0964 55.4358 80.9028 55.3549C80.7091 55.2741 80.5049 55.2337 80.2901 55.2337C80.0649 55.2337 79.8564 55.2741 79.6628 55.3549C79.4691 55.4358 79.3049 55.548 79.1638 55.6918C79.0249 55.8356 78.9154 55.9993 78.8354 56.1836C78.7533 56.3678 78.7133 56.5676 78.7133 56.7831ZM81.7849 53.3473H84.2375V60.2593H81.7849V59.4913C81.2649 60.1471 80.5596 60.4749 79.6691 60.4749C79.1659 60.4749 78.7048 60.3829 78.2817 60.1987C77.8606 60.0145 77.4922 59.7564 77.1764 59.424C76.8627 59.0916 76.6185 58.7008 76.4438 58.2518C76.267 57.8027 76.1806 57.313 76.1806 56.7831C76.1806 56.289 76.2648 55.8198 76.4354 55.3751C76.6059 54.9305 76.8459 54.5421 77.1512 54.2097C77.4564 53.8772 77.8185 53.6145 78.2417 53.4215C78.6649 53.2284 79.1301 53.1318 79.6438 53.1318C80.5049 53.1318 81.2185 53.4326 81.7849 54.0345V53.3473ZM85.8943 53.3473H88.3343V54.1962C88.9975 53.5585 89.7427 53.2396 90.5701 53.2396C91.5933 53.2396 92.3764 53.6707 92.9154 54.533C93.4627 53.6617 94.2438 53.2261 95.2585 53.2261C95.5827 53.2261 95.888 53.2732 96.1743 53.3676C96.4627 53.4619 96.7091 53.6101 96.9154 53.8122C97.1238 54.0143 97.2859 54.277 97.408 54.6004C97.5301 54.9238 97.5891 55.3145 97.5891 55.7726V60.2593H95.1512V56.8505C95.1512 56.5002 95.1259 56.2128 95.0775 55.9882C95.027 55.7636 94.9554 55.5884 94.8606 55.4627C94.768 55.337 94.6564 55.2516 94.5322 55.2067C94.4059 55.1619 94.2712 55.1393 94.128 55.1393C93.3449 55.1393 92.9554 55.7097 92.9554 56.8505V60.2593H90.5154V56.8505C90.5154 56.5002 90.4943 56.2105 90.448 55.9814C90.4038 55.7524 90.3385 55.5705 90.2543 55.4358C90.168 55.301 90.0585 55.209 89.9238 55.1596C89.7891 55.1101 89.6312 55.0855 89.4522 55.0855C89.2985 55.0855 89.1554 55.108 89.0206 55.1528C88.8859 55.1977 88.7659 55.2852 88.6628 55.4156C88.5596 55.5459 88.4796 55.7255 88.4206 55.9545C88.3617 56.1836 88.3343 56.4823 88.3343 56.8505V60.2593H85.8943V53.3473Z" fill="#0079FF"/>
<path d="M63.9473 76.0815C63.9473 76.7373 63.621 77.0653 62.9705 77.0653C62.6821 77.0653 62.4463 76.9773 62.2652 76.8013C62.0842 76.6251 61.9937 76.3924 61.9937 76.1032C61.9937 75.4425 62.3347 75.1122 63.0147 75.1122C63.2884 75.1122 63.5137 75.2051 63.6863 75.3907C63.861 75.5764 63.9473 75.8065 63.9473 76.0815ZM73.9031 77.7524L69.2 69.5726V77.7524H66.9579V66.2366H69.48L74.0652 74.2758V66.2366H76.3094V77.7524H73.9031ZM87.3473 75.6821V77.7524H78.621V66.2366H87.0652V68.2758H80.9726V70.7211H86.5663V72.7211H80.9726V75.6821H87.3473ZM88.261 66.2366H97.5895V68.2758H94.1452V77.7524H91.7221V68.2758H88.261V66.2366Z" fill="#D0D0D5"/>
<path d="M5.13248 49.0893V49.1836H5.13669V49.2044H5.13037V49.0893H5.13248ZM5.1451 49.1299C5.1472 49.139 5.1472 49.1497 5.1472 49.1619C5.1472 49.1745 5.1472 49.1851 5.1451 49.1941C5.1451 49.203 5.14512 49.2074 5.14302 49.2074C5.14091 49.2074 5.14091 49.203 5.1388 49.1941C5.1388 49.1851 5.1388 49.1745 5.1388 49.1619C5.1388 49.1497 5.1388 49.139 5.1388 49.1299C5.14091 49.1211 5.14091 49.1164 5.14302 49.1164C5.14512 49.1164 5.1451 49.1211 5.1451 49.1299ZM5.1451 49.1421C5.14299 49.1377 5.14302 49.1354 5.14302 49.1354C5.14302 49.1354 5.14091 49.1377 5.14091 49.1423C5.14091 49.1468 5.14091 49.1535 5.14091 49.1619C5.14091 49.1705 5.14091 49.1771 5.14091 49.1817C5.14091 49.1863 5.14302 49.1887 5.14302 49.1887C5.14302 49.1887 5.14299 49.1863 5.1451 49.1817C5.1451 49.1771 5.1451 49.1705 5.1451 49.1619C5.1451 49.1535 5.1451 49.1468 5.1451 49.1421ZM5.15353 49.1398C5.15142 49.1398 5.15142 49.1428 5.15142 49.1484C5.15142 49.1518 5.15142 49.1569 5.15142 49.1636V49.2044H5.14931V49.1192H5.15142V49.1341C5.15142 49.1284 5.15142 49.1244 5.15142 49.1223C5.15142 49.119 5.15353 49.1173 5.15353 49.1173V49.1402C5.15353 49.14 5.15353 49.1398 5.15353 49.1398ZM5.15774 49.2072C5.15774 49.2072 5.15563 49.2038 5.15563 49.1967C5.15563 49.1897 5.15353 49.1783 5.15353 49.1628C5.15353 49.148 5.15353 49.1367 5.15563 49.1289C5.15563 49.1209 5.15774 49.1169 5.15774 49.1169C5.15985 49.1169 5.15985 49.1183 5.15985 49.1209C5.15985 49.1236 5.16196 49.1278 5.16196 49.1335C5.16196 49.1385 5.16196 49.1444 5.16196 49.1512C5.16196 49.155 5.16196 49.1607 5.16196 49.168H5.15563C5.15563 49.1764 5.15774 49.1825 5.15774 49.1859C5.15774 49.188 5.15774 49.1891 5.15774 49.1891C5.15774 49.1891 5.15985 49.1878 5.15985 49.1853C5.15985 49.1838 5.15985 49.1819 5.15985 49.1794H5.16196C5.16196 49.1844 5.16196 49.1895 5.16196 49.1948C5.15985 49.203 5.15985 49.2072 5.15774 49.2072ZM5.15774 49.1354C5.15774 49.1354 5.15774 49.1369 5.15774 49.1402C5.15774 49.1434 5.15563 49.1478 5.15563 49.1533H5.15985C5.15985 49.1474 5.15985 49.143 5.15985 49.1398C5.15985 49.1369 5.15774 49.1354 5.15774 49.1354ZM5.16828 49.1428C5.16828 49.1385 5.16828 49.1364 5.16828 49.1364C5.16617 49.1364 5.16617 49.1385 5.16617 49.1428C5.16617 49.1451 5.16617 49.1484 5.16617 49.1531V49.2044H5.16406V49.1194H5.16617V49.1318C5.16617 49.1274 5.16617 49.1242 5.16617 49.1223C5.16617 49.119 5.16828 49.1173 5.16828 49.1173C5.16828 49.1173 5.17038 49.1188 5.17038 49.1217C5.17038 49.1242 5.17038 49.1278 5.17038 49.1318C5.17038 49.127 5.17036 49.1232 5.17247 49.1209C5.17247 49.1185 5.17247 49.1173 5.17247 49.1173C5.17247 49.1173 5.17457 49.1181 5.17457 49.1196C5.17457 49.1211 5.17457 49.1236 5.17457 49.1272C5.17457 49.1301 5.17458 49.1339 5.17668 49.1381C5.17668 49.1411 5.17668 49.1453 5.17668 49.1508V49.2044H5.17247V49.1501C5.17247 49.147 5.17247 49.1442 5.17247 49.1421C5.17247 49.1383 5.17247 49.1362 5.17247 49.1362C5.17247 49.1362 5.17038 49.1388 5.17038 49.144C5.17038 49.1465 5.17038 49.1499 5.17038 49.1537V49.2044H5.16828V49.1537C5.16828 49.1486 5.16828 49.1449 5.16828 49.1428ZM5.18511 49.1192V49.2044H5.183V49.1192H5.18511ZM5.18511 49.0884V49.1091H5.183V49.0884H5.18511ZM5.18932 49.2017C5.18932 49.1998 5.18932 49.1971 5.18932 49.1935V49.2379H5.18722V49.1192H5.18932V49.1318C5.18932 49.128 5.18932 49.1253 5.18932 49.123C5.19143 49.1192 5.19143 49.1173 5.19143 49.1173C5.19354 49.1173 5.19354 49.1211 5.19354 49.1284C5.19564 49.1358 5.19565 49.1465 5.19565 49.1607C5.19565 49.1758 5.19564 49.1872 5.19354 49.195C5.19354 49.203 5.19354 49.2068 5.19143 49.2068C5.19143 49.2068 5.19143 49.2051 5.18932 49.2017ZM5.19143 49.1882C5.19143 49.1882 5.19143 49.1857 5.19354 49.1809C5.19354 49.1762 5.19354 49.1697 5.19354 49.1617C5.19354 49.1552 5.19354 49.1495 5.19354 49.1444C5.19143 49.1394 5.19143 49.1369 5.19143 49.1369C5.18933 49.1369 5.18932 49.1406 5.18932 49.1482C5.18932 49.1524 5.18932 49.1575 5.18932 49.1638C5.18932 49.1737 5.18932 49.1807 5.18932 49.1847C5.18932 49.187 5.19143 49.1882 5.19143 49.1882ZM5.19984 49.136C5.19984 49.1377 5.19984 49.1394 5.19984 49.1415C5.19984 49.144 5.19984 49.1459 5.19984 49.147C5.19984 49.1482 5.19984 49.1501 5.20194 49.1531C5.20194 49.1552 5.20405 49.1583 5.20405 49.1625C5.20405 49.1668 5.20405 49.1722 5.20405 49.1785C5.20405 49.187 5.20405 49.1939 5.20405 49.1992C5.20194 49.2047 5.20194 49.2072 5.19984 49.2072C5.19984 49.2072 5.19773 49.2044 5.19773 49.1988C5.19773 49.1931 5.19565 49.1859 5.19565 49.1773H5.19773C5.19773 49.1811 5.19773 49.184 5.19984 49.1857C5.19984 49.1887 5.19984 49.1901 5.19984 49.1901C5.19984 49.1901 5.20194 49.1895 5.20194 49.1882C5.20194 49.1868 5.20194 49.1849 5.20194 49.1823C5.20194 49.1798 5.20194 49.1779 5.20194 49.1767C5.20194 49.1752 5.19984 49.1731 5.19984 49.1699C5.19773 49.1674 5.19773 49.1644 5.19773 49.1609C5.19773 49.1573 5.19565 49.1522 5.19565 49.1455C5.19565 49.1377 5.19773 49.131 5.19773 49.1253C5.19773 49.1196 5.19984 49.1169 5.19984 49.1169C5.20194 49.1169 5.20194 49.119 5.20194 49.1232C5.20405 49.1274 5.20405 49.1348 5.20405 49.1451H5.20194C5.20194 49.1423 5.20194 49.14 5.20194 49.1383C5.20194 49.1354 5.19984 49.1339 5.19984 49.1339C5.19984 49.1339 5.19984 49.1345 5.19984 49.136ZM5.21037 49.1655V49.1192H5.21248V49.2044H5.21037V49.1924C5.21037 49.1927 5.21037 49.1935 5.21037 49.1948C5.21037 49.196 5.21037 49.1971 5.21037 49.1981C5.21037 49.2013 5.21037 49.2034 5.21037 49.2044C5.21037 49.2057 5.20826 49.2063 5.20826 49.2063C5.20826 49.2063 5.20616 49.2017 5.20616 49.1926C5.20616 49.1876 5.20616 49.1802 5.20616 49.1705V49.1192H5.20826V49.1705C5.20826 49.1754 5.20826 49.179 5.20826 49.1815C5.20826 49.1859 5.20826 49.188 5.20826 49.188C5.21037 49.188 5.21037 49.1849 5.21037 49.1788C5.21037 49.1754 5.21037 49.171 5.21037 49.1655ZM5.22091 49.1428C5.22091 49.1385 5.2188 49.1364 5.2188 49.1364C5.2188 49.1364 5.2188 49.1385 5.2188 49.1428C5.2167 49.1451 5.21669 49.1484 5.21669 49.1531V49.2044H5.21459V49.1194H5.21669V49.1318C5.2188 49.1274 5.2188 49.1242 5.2188 49.1223C5.2188 49.119 5.2188 49.1173 5.22091 49.1173C5.22091 49.1173 5.22091 49.1188 5.22091 49.1217C5.22091 49.1242 5.22302 49.1278 5.22302 49.1318C5.22302 49.127 5.22302 49.1232 5.22302 49.1209C5.22302 49.1185 5.2251 49.1173 5.2251 49.1173C5.2251 49.1173 5.2251 49.1181 5.2251 49.1196C5.2272 49.1211 5.2272 49.1236 5.2272 49.1272C5.2272 49.1301 5.2272 49.1339 5.2272 49.1381C5.2272 49.1411 5.2272 49.1453 5.2272 49.1508V49.2044H5.2251V49.1501C5.2251 49.147 5.2251 49.1442 5.2251 49.1421C5.2251 49.1383 5.22512 49.1362 5.22302 49.1362C5.22302 49.1362 5.22302 49.1388 5.22302 49.144C5.22302 49.1465 5.22302 49.1499 5.22302 49.1537V49.2044H5.22091V49.1537C5.22091 49.1486 5.22091 49.1449 5.22091 49.1428ZM5.23985 49.2036C5.23774 49.2059 5.23774 49.207 5.23774 49.207C5.23564 49.207 5.23563 49.203 5.23563 49.195C5.23353 49.187 5.23353 49.1767 5.23353 49.164C5.23353 49.1495 5.23353 49.1381 5.23563 49.1297C5.23563 49.1213 5.23564 49.1173 5.23774 49.1173C5.23774 49.1173 5.23774 49.1183 5.23985 49.1207C5.23985 49.123 5.23985 49.1259 5.23985 49.1299V49.0893H5.24196V49.2044H5.23985V49.1926C5.23985 49.1977 5.23985 49.2013 5.23985 49.2036ZM5.23774 49.1367C5.23774 49.1367 5.23774 49.1392 5.23774 49.144C5.23564 49.1489 5.23563 49.155 5.23563 49.1623C5.23563 49.1701 5.23564 49.1764 5.23774 49.1813C5.23774 49.1859 5.23774 49.1882 5.23774 49.1882C5.23774 49.1882 5.23985 49.1859 5.23985 49.1813C5.23985 49.1766 5.23985 49.1705 5.23985 49.163C5.23985 49.1527 5.23985 49.1453 5.23985 49.1407C5.23985 49.1379 5.23774 49.1367 5.23774 49.1367ZM5.25036 49.1299C5.25247 49.139 5.25247 49.1497 5.25247 49.1619C5.25247 49.1745 5.25247 49.1851 5.25036 49.1941C5.25036 49.203 5.25038 49.2074 5.24828 49.2074C5.24617 49.2074 5.24617 49.203 5.24406 49.1941C5.24406 49.1851 5.24406 49.1745 5.24406 49.1619C5.24406 49.1497 5.24406 49.139 5.24406 49.1299C5.24617 49.1211 5.24617 49.1164 5.24828 49.1164C5.25038 49.1164 5.25036 49.1211 5.25036 49.1299ZM5.25036 49.1421C5.24825 49.1377 5.24828 49.1354 5.24828 49.1354C5.24828 49.1354 5.24617 49.1377 5.24617 49.1423C5.24617 49.1468 5.24617 49.1535 5.24617 49.1619C5.24617 49.1705 5.24617 49.1771 5.24617 49.1817C5.24617 49.1863 5.24828 49.1887 5.24828 49.1887C5.24828 49.1887 5.24825 49.1863 5.25036 49.1817C5.25036 49.1771 5.25036 49.1705 5.25036 49.1619C5.25036 49.1535 5.25036 49.1468 5.25036 49.1421ZM5.25457 49.0893H5.25668V49.2044H5.25457V49.0893ZM5.26511 49.1299C5.26511 49.139 5.26722 49.1497 5.26722 49.1619C5.26722 49.1745 5.26511 49.1851 5.26511 49.1941C5.26511 49.203 5.263 49.2074 5.263 49.2074C5.2609 49.2074 5.25879 49.203 5.25879 49.1941C5.25879 49.1851 5.25879 49.1745 5.25879 49.1619C5.25879 49.1497 5.25879 49.139 5.25879 49.1299C5.25879 49.1211 5.2609 49.1164 5.263 49.1164C5.263 49.1164 5.26511 49.1211 5.26511 49.1299ZM5.263 49.1421C5.263 49.1377 5.263 49.1354 5.263 49.1354C5.2609 49.1354 5.2609 49.1377 5.2609 49.1423C5.2609 49.1468 5.2609 49.1535 5.2609 49.1619C5.2609 49.1705 5.2609 49.1771 5.2609 49.1817C5.2609 49.1863 5.2609 49.1887 5.263 49.1887C5.263 49.1887 5.263 49.1863 5.263 49.1817C5.263 49.1771 5.26511 49.1705 5.26511 49.1619C5.26511 49.1535 5.263 49.1468 5.263 49.1421ZM5.27354 49.1398C5.27144 49.1398 5.27143 49.1398 5.27143 49.1398C5.27143 49.1398 5.27143 49.1428 5.27143 49.1484C5.26933 49.1518 5.26933 49.1569 5.26933 49.1636V49.2044H5.26722V49.1192H5.26933V49.1341C5.27143 49.1284 5.27143 49.1244 5.27143 49.1223C5.27143 49.119 5.27144 49.1173 5.27354 49.1173V49.1402C5.27354 49.14 5.27354 49.1398 5.27354 49.1398ZM5.28194 49.136C5.28194 49.1377 5.28194 49.1394 5.28194 49.1415C5.28194 49.144 5.28194 49.1459 5.28194 49.147C5.28194 49.1482 5.28195 49.1501 5.28405 49.1531C5.28405 49.1552 5.28616 49.1583 5.28616 49.1625C5.28616 49.1668 5.28616 49.1722 5.28616 49.1785C5.28616 49.187 5.28616 49.1939 5.28616 49.1992C5.28405 49.2047 5.28405 49.2072 5.28194 49.2072C5.28194 49.2072 5.27984 49.2044 5.27984 49.1988C5.27984 49.1931 5.27773 49.1859 5.27773 49.1773H5.28194C5.28194 49.1811 5.28194 49.184 5.28194 49.1857C5.28194 49.1887 5.28194 49.1901 5.28194 49.1901C5.28405 49.1901 5.28405 49.1895 5.28405 49.1882C5.28405 49.1868 5.28405 49.1849 5.28405 49.1823C5.28405 49.1798 5.28405 49.1779 5.28405 49.1767C5.28405 49.1752 5.28194 49.1731 5.28194 49.1699C5.27984 49.1674 5.27984 49.1644 5.27984 49.1609C5.27984 49.1573 5.27984 49.1522 5.27984 49.1455C5.27984 49.1377 5.27984 49.131 5.27984 49.1253C5.27984 49.1196 5.28194 49.1169 5.28194 49.1169C5.28405 49.1169 5.28405 49.119 5.28405 49.1232C5.28616 49.1274 5.28616 49.1348 5.28616 49.1451H5.28405C5.28405 49.1423 5.28405 49.14 5.28405 49.1383C5.28405 49.1354 5.28405 49.1339 5.28194 49.1339C5.28194 49.1339 5.28194 49.1345 5.28194 49.136ZM5.29037 49.1192V49.2044H5.28827V49.1192H5.29037ZM5.29037 49.0884V49.1091H5.28827V49.0884H5.29037ZM5.29459 49.1874C5.29459 49.1882 5.29459 49.1887 5.2967 49.1887V49.2051L5.29459 49.2055C5.29459 49.2059 5.29459 49.204 5.29248 49.2C5.29248 49.1975 5.29248 49.1937 5.29248 49.1882V49.1358V49.12V49.0962H5.29459V49.12H5.2967V49.1358H5.29459V49.1809C5.29459 49.1844 5.29459 49.1865 5.29459 49.1874ZM5.30299 49.159C5.30299 49.1564 5.3051 49.1545 5.3051 49.1535V49.1527C5.3072 49.152 5.30721 49.1514 5.30721 49.1505C5.30721 49.1493 5.30721 49.1472 5.30721 49.1442C5.30721 49.1409 5.30721 49.1383 5.30721 49.1371C5.30721 49.1358 5.3072 49.1352 5.3051 49.1352C5.3051 49.1352 5.3051 49.1364 5.3051 49.139C5.3051 49.1409 5.3051 49.1436 5.3051 49.1468H5.30299C5.30299 49.1394 5.30299 49.1333 5.30299 49.1284C5.30299 49.1209 5.3051 49.1173 5.3051 49.1173C5.3072 49.1173 5.30721 49.119 5.30931 49.1228C5.30931 49.1265 5.30931 49.1335 5.30931 49.1436V49.1828C5.30931 49.1855 5.30931 49.1886 5.30931 49.1926C5.30931 49.1956 5.30931 49.1975 5.30931 49.1985C5.30931 49.1996 5.30931 49.2004 5.30931 49.2011V49.2044H5.30721C5.30721 49.2028 5.30721 49.2011 5.30721 49.1996C5.30721 49.1981 5.30721 49.1962 5.30721 49.1943C5.30721 49.1977 5.30721 49.2007 5.30721 49.203C5.3051 49.2057 5.3051 49.207 5.3051 49.207C5.30299 49.207 5.30299 49.2049 5.30299 49.2004C5.30299 49.196 5.30299 49.1897 5.30299 49.1817C5.30299 49.1712 5.30299 49.1636 5.30299 49.159ZM5.30721 49.1868C5.30721 49.1838 5.30721 49.1788 5.30721 49.1712V49.163C5.30721 49.1638 5.30721 49.1647 5.30721 49.1651C5.30721 49.1657 5.30721 49.1661 5.30721 49.1668L5.3051 49.1676C5.3051 49.1684 5.3051 49.1695 5.3051 49.1705C5.3051 49.1727 5.3051 49.1758 5.3051 49.18C5.3051 49.1838 5.3051 49.1865 5.3051 49.1882C5.3051 49.1901 5.3051 49.191 5.3051 49.191C5.3051 49.191 5.30721 49.1895 5.30721 49.1868ZM5.31564 49.1428C5.31564 49.1385 5.31564 49.1364 5.31564 49.1364C5.31353 49.1364 5.31353 49.1385 5.31353 49.1428C5.31353 49.1451 5.31353 49.1484 5.31353 49.1531V49.2044H5.31142V49.1194H5.31353V49.1318C5.31353 49.1274 5.31353 49.1242 5.31353 49.1223C5.31563 49.119 5.31564 49.1173 5.31564 49.1173C5.31774 49.1173 5.31774 49.1188 5.31774 49.1217C5.31774 49.1242 5.31774 49.1278 5.31774 49.1318C5.31774 49.127 5.31985 49.1232 5.31985 49.1209C5.31985 49.1185 5.31985 49.1173 5.32196 49.1173C5.32196 49.1173 5.32196 49.1181 5.32196 49.1196C5.32196 49.1211 5.32196 49.1236 5.32406 49.1272C5.32406 49.1301 5.32406 49.1339 5.32406 49.1381C5.32406 49.1411 5.32406 49.1453 5.32406 49.1508V49.2044H5.32196V49.1501C5.32196 49.147 5.32196 49.1442 5.32196 49.1421C5.32196 49.1383 5.31985 49.1362 5.31985 49.1362C5.31985 49.1362 5.31985 49.1388 5.31985 49.144C5.31774 49.1465 5.31774 49.1499 5.31774 49.1537V49.2044H5.31564V49.1537C5.31564 49.1486 5.31564 49.1449 5.31564 49.1428ZM5.32828 49.2072C5.32828 49.2072 5.32617 49.2038 5.32617 49.1967C5.32617 49.1897 5.32406 49.1783 5.32406 49.1628C5.32406 49.148 5.32617 49.1367 5.32617 49.1289C5.32617 49.1209 5.32828 49.1169 5.32828 49.1169C5.33038 49.1169 5.33036 49.1183 5.33036 49.1209C5.33247 49.1236 5.33247 49.1278 5.33247 49.1335C5.33247 49.1385 5.33247 49.1444 5.33247 49.1512C5.33247 49.155 5.33247 49.1607 5.33247 49.168H5.32828C5.32828 49.1764 5.32828 49.1825 5.32828 49.1859C5.32828 49.188 5.32828 49.1891 5.32828 49.1891C5.33038 49.1891 5.33036 49.1878 5.33036 49.1853C5.33036 49.1838 5.33036 49.1819 5.33036 49.1794H5.33247C5.33247 49.1844 5.33247 49.1895 5.33247 49.1948C5.33036 49.203 5.33038 49.2072 5.32828 49.2072ZM5.32828 49.1354C5.32828 49.1354 5.32828 49.1369 5.32828 49.1402C5.32828 49.1434 5.32828 49.1478 5.32828 49.1533H5.33036C5.33036 49.1474 5.33036 49.143 5.33036 49.1398C5.33036 49.1369 5.33038 49.1354 5.32828 49.1354ZM5.33668 49.1874C5.33668 49.1882 5.33668 49.1887 5.33879 49.1887V49.2051L5.33668 49.2055C5.33668 49.2059 5.33458 49.204 5.33458 49.2C5.33458 49.1975 5.33458 49.1937 5.33458 49.1882V49.1358V49.12V49.0962H5.33668V49.12H5.33879V49.1358H5.33668V49.1809C5.33668 49.1844 5.33668 49.1865 5.33668 49.1874Z" fill="#474749"/>
<defs>
<linearGradient id="paint0_linear_4_3571" x1="64" y1="0" x2="64" y2="128" gradientUnits="userSpaceOnUse">
<stop stop-color="#313131"/>
<stop offset="1" stop-color="#141414"/>
</linearGradient>
</defs>
</svg>
