<?xml version="1.0" encoding="utf-8"?>
<svg viewBox="0 0 608 608" xmlns="http://www.w3.org/2000/svg" xmlns:xlink="http://www.w3.org/1999/xlink">
  <!--Generated by AMDN-->
  <g id="am1">
    <g id="am2">
      <g id="am3">
        <g id="am4">
          <path id="am5" style="fill:#484849;fill-opacity:1;fill-rule:nonzero;opacity:1;stroke:#2a2a2f;stroke-linecap:butt;stroke-linejoin:miter;stroke-miterlimit:10;stroke-opacity:1;stroke-width:0;" d="M431.902,82.4658 C463.703,100.826,474.599,141.49,456.239,173.291 C437.879,205.093,397.215,215.988,365.413,197.628 C333.612,179.268,322.716,138.604,341.077,106.802 C359.437,75.0013,400.101,64.1055,431.902,82.4658"/>
          <path id="am6" style="fill:#8e8e93;fill-opacity:1;fill-rule:nonzero;opacity:1;stroke:none;" d="M431.41,83.3178 C462.741,101.407,473.476,141.469,455.387,172.799 C437.298,204.13,397.236,214.865,365.905,196.776 C334.575,178.687,323.84,138.625,341.929,107.294 C360.018,75.9638,400.08,65.2292,431.41,83.3178"/>
        </g>
        <path id="am7" style="fill:#484849;fill-opacity:1;fill-rule:evenodd;opacity:1;stroke:none;" d="M418.449,105.768 C437.381,116.698,443.867,140.906,432.937,159.838 C422.007,178.77,397.799,185.256,378.867,174.326 C359.935,163.396,353.449,139.188,364.379,120.256 C375.309,101.324,399.517,94.8376,418.449,105.768 z"/>
      </g>
      <g id="am8">
        <g id="am9">
          <path id="am10" style="fill:#484849;fill-opacity:1;fill-rule:nonzero;opacity:1;stroke:#2a2a2f;stroke-linecap:butt;stroke-linejoin:miter;stroke-miterlimit:10;stroke-opacity:1;stroke-width:0;" d="M304,48.1833 C340.727,48.1833,370.5,77.9564,370.5,114.683 C370.5,151.41,340.727,181.183,304,181.183 C267.273,181.183,237.5,151.41,237.5,114.683 C237.5,77.9564,267.273,48.1833,304,48.1833 z"/>
          <path id="am11" style="fill:#8e8e93;fill-opacity:1;fill-rule:nonzero;opacity:1;stroke:none;" d="M304,49.1783 C340.177,49.1783,369.505,78.5059,369.505,114.683 C369.505,150.861,340.177,180.188,304,180.188 C267.823,180.188,238.495,150.861,238.495,114.683 C238.495,78.5059,267.823,49.1783,304,49.1783 z"/>
        </g>
        <path id="am12" style="fill:#484849;fill-opacity:1;fill-rule:evenodd;opacity:1;stroke:none;" d="M304,75.1013 C325.861,75.1013,343.582,92.8228,343.582,114.683 C343.582,136.544,325.861,154.265,304,154.265 C282.139,154.265,264.418,136.544,264.418,114.683 C264.418,92.8228,282.139,75.1013,304,75.1013 z"/>
      </g>
      <g id="am13">
        <g id="am14">
          <path id="am15" style="fill:#484849;fill-opacity:1;fill-rule:evenodd;opacity:1;stroke:#2a2a2f;stroke-linecap:butt;stroke-linejoin:miter;stroke-miterlimit:10;stroke-opacity:1;stroke-width:0;" d="M176.097,82.4659 C207.898,64.1055,248.562,75.0014,266.923,106.802 C285.283,138.604,274.387,179.268,242.586,197.628 C210.785,215.988,170.121,205.093,151.761,173.291 C133.4,141.49,144.296,100.826,176.097,82.4659 z"/>
          <path id="am16" style="fill:#8e8e93;fill-opacity:1;fill-rule:evenodd;opacity:1;stroke:none;" d="M176.589,83.3179 C207.92,65.2292,247.982,75.9638,266.071,107.294 C284.159,138.625,273.425,178.687,242.094,196.776 C210.764,214.865,170.701,204.13,152.613,172.799 C134.524,141.469,145.259,101.407,176.589,83.3179 z"/>
        </g>
        <path id="am17" style="fill:#484849;fill-opacity:1;fill-rule:evenodd;opacity:1;stroke:none;" d="M189.551,105.768 C208.482,94.8376,232.69,101.324,243.621,120.256 C254.551,139.188,248.065,163.396,229.133,174.326 C210.201,185.256,185.993,178.77,175.063,159.838 C164.132,140.906,170.619,116.698,189.551,105.768 z"/>
      </g>
      <g id="am18">
        <g id="am19">
          <path id="am20" style="fill:#484849;fill-opacity:1;fill-rule:evenodd;opacity:1;stroke:#2a2a2f;stroke-linecap:butt;stroke-linejoin:miter;stroke-miterlimit:10;stroke-opacity:1;stroke-width:0;" d="M82.4661,176.097 C100.826,144.296,141.49,133.4,173.292,151.76 C205.093,170.121,215.989,210.785,197.628,242.586 C179.268,274.387,138.604,285.283,106.803,266.923 C75.0016,248.562,64.1057,207.898,82.4661,176.097 z"/>
          <path id="am21" style="fill:#8e8e93;fill-opacity:1;fill-rule:evenodd;opacity:1;stroke:none;" d="M83.3181,176.589 C101.407,145.258,141.469,134.524,172.8,152.612 C204.13,170.701,214.865,210.763,196.776,242.094 C178.687,273.425,138.625,284.159,107.295,266.071 C75.964,247.982,65.2294,207.92,83.3181,176.589 z"/>
        </g>
        <path id="am22" style="fill:#484849;fill-opacity:1;fill-rule:evenodd;opacity:1;stroke:none;" d="M105.768,189.55 C116.698,170.619,140.906,164.132,159.838,175.062 C178.77,185.993,185.257,210.201,174.326,229.133 C163.396,248.064,139.188,254.551,120.256,243.621 C101.324,232.69,94.8378,208.482,105.768,189.55 z"/>
      </g>
      <g id="am23">
        <g id="am24">
          <path id="am25" style="fill:#484849;fill-opacity:1;fill-rule:evenodd;opacity:1;stroke:#2a2a2f;stroke-linecap:butt;stroke-linejoin:miter;stroke-miterlimit:10;stroke-opacity:1;stroke-width:0;" d="M48.1836,304 C48.1836,267.273,77.9567,237.5,114.684,237.5 C151.411,237.5,181.184,267.273,181.184,304 C181.184,340.727,151.411,370.5,114.684,370.5 C77.9567,370.5,48.1836,340.727,48.1836,304 z"/>
          <path id="am26" style="fill:#8e8e93;fill-opacity:1;fill-rule:evenodd;opacity:1;stroke:none;" d="M49.1786,304 C49.1786,267.822,78.5062,238.495,114.684,238.495 C150.861,238.495,180.189,267.822,180.189,304 C180.189,340.177,150.861,369.505,114.684,369.505 C78.5062,369.505,49.1786,340.177,49.1786,304 z"/>
        </g>
        <path id="am27" style="fill:#484849;fill-opacity:1;fill-rule:evenodd;opacity:1;stroke:none;" d="M75.1016,304 C75.1016,282.139,92.8231,264.418,114.684,264.418 C136.544,264.418,154.266,282.139,154.266,304 C154.266,325.86,136.544,343.582,114.684,343.582 C92.8231,343.582,75.1016,325.86,75.1016,304 z"/>
      </g>
      <g id="am28">
        <g id="am29">
          <path id="am30" style="fill:#484849;fill-opacity:1;fill-rule:evenodd;opacity:1;stroke:#2a2a2f;stroke-linecap:butt;stroke-linejoin:miter;stroke-miterlimit:10;stroke-opacity:1;stroke-width:0;" d="M82.4661,431.902 C64.1057,400.101,75.0016,359.437,106.803,341.077 C138.604,322.716,179.268,333.612,197.628,365.413 C215.989,397.214,205.093,437.878,173.292,456.239 C141.49,474.599,100.827,463.703,82.4661,431.902 z"/>
          <path id="am31" style="fill:#8e8e93;fill-opacity:1;fill-rule:evenodd;opacity:1;stroke:none;" d="M83.3182,431.41 C65.2294,400.08,75.9641,360.017,107.295,341.929 C138.625,323.84,178.687,334.575,196.776,365.905 C214.865,397.236,204.13,437.298,172.8,455.387 C141.469,473.475,101.407,462.741,83.3182,431.41 z"/>
        </g>
        <path id="am32" style="fill:#484849;fill-opacity:1;fill-rule:evenodd;opacity:1;stroke:none;" d="M105.768,418.449 C94.8378,399.517,101.324,375.309,120.256,364.379 C139.188,353.448,163.396,359.935,174.326,378.867 C185.257,397.798,178.77,422.007,159.838,432.937 C140.906,443.867,116.698,437.381,105.768,418.449 z"/>
      </g>
      <g id="am33">
        <g id="am34">
          <path id="am35" style="fill:#484849;fill-opacity:1;fill-rule:evenodd;opacity:1;stroke:#2a2a2f;stroke-linecap:butt;stroke-linejoin:miter;stroke-miterlimit:10;stroke-opacity:1;stroke-width:0;" d="M176.097,525.533 C144.296,507.173,133.4,466.509,151.761,434.708 C170.121,402.907,210.785,392.011,242.586,410.371 C274.387,428.732,285.283,469.396,266.923,501.197 C248.562,532.998,207.898,543.894,176.097,525.533 z"/>
          <path id="am36" style="fill:#8e8e93;fill-opacity:1;fill-rule:evenodd;opacity:1;stroke:none;" d="M176.589,524.681 C145.259,506.593,134.524,466.53,152.613,435.2 C170.701,403.869,210.764,393.134,242.094,411.223 C273.425,429.312,284.16,469.374,266.071,500.705 C247.982,532.035,207.92,542.77,176.589,524.681 z"/>
        </g>
        <path id="am37" style="fill:#484849;fill-opacity:1;fill-rule:evenodd;opacity:1;stroke:none;" d="M189.551,502.231 C170.619,491.301,164.132,467.093,175.063,448.161 C185.993,429.229,210.201,422.743,229.133,433.673 C248.065,444.603,254.551,468.811,243.621,487.743 C232.691,506.675,208.483,513.162,189.551,502.231 z"/>
      </g>
      <g id="am38">
        <g id="am39">
          <path id="am40" style="fill:#484849;fill-opacity:1;fill-rule:evenodd;opacity:1;stroke:#2a2a2f;stroke-linecap:butt;stroke-linejoin:miter;stroke-miterlimit:10;stroke-opacity:1;stroke-width:0;" d="M304,559.816 C267.273,559.816,237.5,530.043,237.5,493.316 C237.5,456.589,267.273,426.816,304,426.816 C340.727,426.816,370.5,456.589,370.5,493.316 C370.5,530.043,340.727,559.816,304,559.816 z"/>
          <path id="am41" style="fill:#8e8e93;fill-opacity:1;fill-rule:evenodd;opacity:1;stroke:none;" d="M304,558.821 C267.822,558.821,238.495,529.493,238.495,493.316 C238.495,457.138,267.822,427.811,304,427.811 C340.177,427.811,369.505,457.138,369.505,493.316 C369.505,529.493,340.177,558.821,304,558.821 z"/>
        </g>
        <path id="am42" style="fill:#484849;fill-opacity:1;fill-rule:evenodd;opacity:1;stroke:none;" d="M304,532.898 C282.139,532.898,264.418,515.176,264.418,493.316 C264.418,471.455,282.139,453.734,304,453.734 C325.86,453.734,343.582,471.455,343.582,493.316 C343.582,515.176,325.86,532.898,304,532.898 z"/>
      </g>
      <g id="am43">
        <g id="am44">
          <path id="am45" style="fill:#484849;fill-opacity:1;fill-rule:evenodd;opacity:1;stroke:#2a2a2f;stroke-linecap:butt;stroke-linejoin:miter;stroke-miterlimit:10;stroke-opacity:1;stroke-width:0;" d="M431.902,525.533 C400.101,543.894,359.437,532.998,341.077,501.197 C322.716,469.395,333.612,428.732,365.414,410.371 C397.215,392.011,437.879,402.907,456.239,434.708 C474.599,466.509,463.703,507.173,431.902,525.533 z"/>
          <path id="am46" style="fill:#8e8e93;fill-opacity:1;fill-rule:evenodd;opacity:1;stroke:none;" d="M431.41,524.681 C400.08,542.77,360.018,532.035,341.929,500.705 C323.84,469.374,334.575,429.312,365.905,411.223 C397.236,393.134,437.298,403.869,455.387,435.2 C473.476,466.53,462.741,506.592,431.41,524.681 z"/>
        </g>
        <path id="am47" style="fill:#484849;fill-opacity:1;fill-rule:evenodd;opacity:1;stroke:none;" d="M418.449,502.231 C399.517,513.162,375.309,506.675,364.379,487.743 C353.449,468.811,359.935,444.603,378.867,433.673 C397.799,422.743,422.007,429.229,432.937,448.161 C443.867,467.093,437.381,491.301,418.449,502.231 z"/>
      </g>
      <g id="am48">
        <g id="am50">
          <path style="fill:#8d8d92;fill-opacity:1;fill-rule:nonzero;opacity:1;stroke:none;" d="M224.062,269.72 C224.062,270.787,224.254,271.779,224.638,272.696 C225.022,273.613,225.544,274.413,226.206,275.096 C226.867,275.779,227.656,276.312,228.574,276.696 C229.491,277.08,230.483,277.272,231.55,277.272 C232.574,277.272,233.544,277.08,234.462,276.696 C235.379,276.312,236.168,275.779,236.83,275.096 C237.491,274.413,238.024,273.624,238.43,272.728 C238.835,271.832,239.038,270.872,239.038,269.848 C239.038,268.824,238.835,267.853,238.43,266.936 C238.024,266.019,237.491,265.219,236.83,264.536 C236.168,263.853,235.379,263.32,234.462,262.936 C233.544,262.552,232.574,262.36,231.55,262.36 C230.483,262.36,229.491,262.552,228.574,262.936 C227.656,263.32,226.867,263.853,226.206,264.536 C225.544,265.219,225.022,265.997,224.638,266.872 C224.254,267.747,224.062,268.696,224.062,269.72 z M238.654,253.4 C238.654,253.4,250.302,253.4,250.302,253.4 C250.302,253.4,250.302,286.232,250.302,286.232 C250.302,286.232,238.654,286.232,238.654,286.232 C238.654,286.232,238.654,282.584,238.654,282.584 C236.179,285.699,232.83,287.256,228.606,287.256 C226.216,287.256,224.019,286.819,222.014,285.944 C220.008,285.069,218.259,283.843,216.766,282.264 C215.272,280.685,214.11,278.829,213.278,276.696 C212.446,274.563,212.03,272.237,212.03,269.72 C212.03,267.373,212.435,265.144,213.246,263.032 C214.056,260.92,215.187,259.075,216.638,257.496 C218.088,255.917,219.816,254.669,221.822,253.752 C223.827,252.835,226.046,252.376,228.478,252.376 C232.574,252.376,235.966,253.805,238.654,256.664 C238.654,256.664,238.654,253.4,238.654,253.4 z M269.758,253.4 C269.758,253.4,269.758,286.232,269.758,286.232 C269.758,286.232,258.174,286.232,258.174,286.232 C258.174,286.232,258.174,253.4,258.174,253.4 C258.174,253.4,269.758,253.4,269.758,253.4 z M257.406,240.792 C257.406,239.896,257.576,239.053,257.918,238.264 C258.259,237.475,258.728,236.781,259.326,236.184 C259.923,235.587,260.616,235.117,261.406,234.776 C262.195,234.435,263.038,234.264,263.934,234.264 C264.83,234.264,265.672,234.435,266.462,234.776 C267.251,235.117,267.944,235.587,268.542,236.184 C269.139,236.781,269.608,237.475,269.95,238.264 C270.291,239.053,270.462,239.896,270.462,240.792 C270.462,241.688,270.291,242.531,269.95,243.32 C269.608,244.109,269.139,244.803,268.542,245.4 C267.944,245.997,267.251,246.467,266.462,246.808 C265.672,247.149,264.83,247.32,263.934,247.32 C263.038,247.32,262.195,247.149,261.406,246.808 C260.616,246.467,259.923,245.997,259.326,245.4 C258.728,244.803,258.259,244.109,257.918,243.32 C257.576,242.531,257.406,241.688,257.406,240.792 z M289.278,253.4 C289.278,253.4,289.278,286.232,289.278,286.232 C289.278,286.232,277.694,286.232,277.694,286.232 C277.694,286.232,277.694,253.4,277.694,253.4 C277.694,253.4,289.278,253.4,289.278,253.4 z M276.926,240.792 C276.926,239.896,277.096,239.053,277.438,238.264 C277.779,237.475,278.248,236.781,278.846,236.184 C279.443,235.587,280.136,235.117,280.926,234.776 C281.715,234.435,282.558,234.264,283.454,234.264 C284.35,234.264,285.192,234.435,285.982,234.776 C286.771,235.117,287.464,235.587,288.062,236.184 C288.659,236.781,289.128,237.475,289.47,238.264 C289.811,239.053,289.982,239.896,289.982,240.792 C289.982,241.688,289.811,242.531,289.47,243.32 C289.128,244.109,288.659,244.803,288.062,245.4 C287.464,245.997,286.771,246.467,285.982,246.808 C285.192,247.149,284.35,247.32,283.454,247.32 C282.558,247.32,281.715,247.149,280.926,246.808 C280.136,246.467,279.443,245.997,278.846,245.4 C278.248,244.803,277.779,244.109,277.438,243.32 C277.096,242.531,276.926,241.688,276.926,240.792 z"/>
        </g>
        <g id="am52">
          <path style="fill:#0079ff;fill-opacity:1;fill-rule:nonzero;opacity:1;stroke:none;" d="M310.142,263.064 C310.142,263.064,310.142,286.232,310.142,286.232 C310.142,286.232,298.558,286.232,298.558,286.232 C298.558,286.232,298.558,263.064,298.558,263.064 C298.558,263.064,294.718,263.064,294.718,263.064 C294.718,263.064,294.718,253.4,294.718,253.4 C294.718,253.4,298.558,253.4,298.558,253.4 C298.558,253.4,298.558,243.544,298.558,243.544 C298.558,243.544,310.142,243.544,310.142,243.544 C310.142,243.544,310.142,253.4,310.142,253.4 C310.142,253.4,316.734,253.4,316.734,253.4 C316.734,253.4,316.734,263.064,316.734,263.064 C316.734,263.064,310.142,263.064,310.142,263.064 z M345.726,265.048 C345.342,263.427,344.552,262.125,343.358,261.144 C342.163,260.163,340.712,259.672,339.006,259.672 C337.214,259.672,335.752,260.141,334.622,261.08 C333.491,262.019,332.776,263.341,332.478,265.048 C332.478,265.048,345.726,265.048,345.726,265.048 z M332.158,271.768 C332.158,276.76,334.504,279.256,339.198,279.256 C341.715,279.256,343.614,278.232,344.894,276.184 C344.894,276.184,356.094,276.184,356.094,276.184 C353.832,283.693,348.179,287.448,339.134,287.448 C336.36,287.448,333.822,287.032,331.518,286.2 C329.214,285.368,327.24,284.184,325.598,282.648 C323.955,281.112,322.686,279.277,321.79,277.144 C320.894,275.011,320.446,272.621,320.446,269.976 C320.446,267.245,320.872,264.781,321.726,262.584 C322.579,260.387,323.795,258.52,325.374,256.984 C326.952,255.448,328.862,254.264,331.102,253.432 C333.342,252.6,335.87,252.184,338.686,252.184 C341.459,252.184,343.955,252.6,346.174,253.432 C348.392,254.264,350.27,255.469,351.806,257.048 C353.342,258.627,354.515,260.557,355.326,262.84 C356.136,265.123,356.542,267.693,356.542,270.552 C356.542,270.552,356.542,271.768,356.542,271.768 C356.542,271.768,332.158,271.768,332.158,271.768 z M373.886,269.72 C373.886,270.787,374.078,271.779,374.462,272.696 C374.846,273.613,375.368,274.413,376.03,275.096 C376.691,275.779,377.48,276.312,378.398,276.696 C379.315,277.08,380.307,277.272,381.374,277.272 C382.398,277.272,383.368,277.08,384.286,276.696 C385.203,276.312,385.992,275.779,386.654,275.096 C387.315,274.413,387.848,273.624,388.254,272.728 C388.659,271.832,388.862,270.872,388.862,269.848 C388.862,268.824,388.659,267.853,388.254,266.936 C387.848,266.019,387.315,265.219,386.654,264.536 C385.992,263.853,385.203,263.32,384.286,262.936 C383.368,262.552,382.398,262.36,381.374,262.36 C380.307,262.36,379.315,262.552,378.398,262.936 C377.48,263.32,376.691,263.853,376.03,264.536 C375.368,265.219,374.846,265.997,374.462,266.872 C374.078,267.747,373.886,268.696,373.886,269.72 z M388.478,253.4 C388.478,253.4,400.126,253.4,400.126,253.4 C400.126,253.4,400.126,286.232,400.126,286.232 C400.126,286.232,388.478,286.232,388.478,286.232 C388.478,286.232,388.478,282.584,388.478,282.584 C386.003,285.699,382.654,287.256,378.43,287.256 C376.04,287.256,373.843,286.819,371.838,285.944 C369.832,285.069,368.083,283.843,366.59,282.264 C365.096,280.685,363.934,278.829,363.102,276.696 C362.27,274.563,361.854,272.237,361.854,269.72 C361.854,267.373,362.259,265.144,363.07,263.032 C363.88,260.92,365.011,259.075,366.462,257.496 C367.912,255.917,369.64,254.669,371.646,253.752 C373.651,252.835,375.87,252.376,378.302,252.376 C382.398,252.376,385.79,253.805,388.478,256.664 C388.478,256.664,388.478,253.4,388.478,253.4 z M407.998,253.4 C407.998,253.4,419.582,253.4,419.582,253.4 C419.582,253.4,419.582,257.432,419.582,257.432 C422.739,254.403,426.28,252.888,430.206,252.888 C435.07,252.888,438.782,254.936,441.342,259.032 C443.944,254.893,447.656,252.824,452.478,252.824 C454.014,252.824,455.464,253.048,456.83,253.496 C458.195,253.944,459.368,254.648,460.35,255.608 C461.331,256.568,462.11,257.816,462.686,259.352 C463.262,260.888,463.55,262.744,463.55,264.92 C463.55,264.92,463.55,286.232,463.55,286.232 C463.55,286.232,451.966,286.232,451.966,286.232 C451.966,286.232,451.966,270.04,451.966,270.04 C451.966,268.376,451.848,267.011,451.614,265.944 C451.379,264.877,451.038,264.045,450.59,263.448 C450.142,262.851,449.619,262.445,449.022,262.232 C448.424,262.019,447.784,261.912,447.102,261.912 C443.39,261.912,441.534,264.621,441.534,270.04 C441.534,270.04,441.534,286.232,441.534,286.232 C441.534,286.232,429.95,286.232,429.95,286.232 C429.95,286.232,429.95,270.04,429.95,270.04 C429.95,268.376,429.843,267,429.63,265.912 C429.416,264.824,429.107,263.96,428.702,263.32 C428.296,262.68,427.774,262.243,427.134,262.008 C426.494,261.773,425.747,261.656,424.894,261.656 C424.168,261.656,423.486,261.763,422.846,261.976 C422.206,262.189,421.64,262.605,421.15,263.224 C420.659,263.843,420.275,264.696,419.998,265.784 C419.72,266.872,419.582,268.291,419.582,270.04 C419.582,270.04,419.582,286.232,419.582,286.232 C419.582,286.232,407.998,286.232,407.998,286.232 C407.998,286.232,407.998,253.4,407.998,253.4 z"/>
        </g>
      </g>
      <g id="am53">
        <g id="am55">
          <path style="fill:#474749;fill-opacity:1;fill-rule:nonzero;opacity:1;stroke:none;" d="M303.745,361.387 C303.745,364.502,302.199,366.06,299.107,366.06 C297.733,366.06,296.616,365.642,295.757,364.806 C294.898,363.969,294.469,362.864,294.469,361.49 C294.469,358.352,296.083,356.783,299.313,356.783 C300.619,356.783,301.684,357.224,302.508,358.106 C303.333,358.988,303.745,360.081,303.745,361.387 z M351.032,369.324 C351.032,369.324,328.692,330.47,328.692,330.47 C328.692,330.47,328.692,369.324,328.692,369.324 C328.692,369.324,318.041,369.324,318.041,369.324 C318.041,369.324,318.041,314.624,318.041,314.624 C318.041,314.624,330.028,314.624,330.028,314.624 C330.028,314.624,351.811,352.81,351.811,352.81 C351.811,352.81,351.811,314.624,351.811,314.624 C351.811,314.624,362.461,314.624,362.461,314.624 C362.461,314.624,362.461,369.324,362.461,369.324 C362.461,369.324,351.032,369.324,351.032,369.324 z M414.897,359.49 C414.897,359.49,414.897,369.324,414.897,369.324 C414.897,369.324,373.446,369.324,373.446,369.324 C373.446,369.324,373.446,314.624,373.446,314.624 C373.446,314.624,413.561,314.624,413.561,314.624 C413.561,314.624,413.561,324.31,413.561,324.31 C413.561,324.31,384.616,324.31,384.616,324.31 C384.616,324.31,384.616,335.925,384.616,335.925 C384.616,335.925,411.186,335.925,411.186,335.925 C411.186,335.925,411.186,345.425,411.186,345.425 C411.186,345.425,384.616,345.425,384.616,345.425 C384.616,345.425,384.616,359.49,384.616,359.49 C384.616,359.49,414.897,359.49,414.897,359.49 z M419.239,314.624 C419.239,314.624,463.547,314.624,463.547,314.624 C463.547,314.624,463.547,324.31,463.547,324.31 C463.547,324.31,447.182,324.31,447.182,324.31 C447.182,324.31,447.182,369.324,447.182,369.324 C447.182,369.324,435.678,369.324,435.678,369.324 C435.678,369.324,435.678,324.31,435.678,324.31 C435.678,324.31,419.239,324.31,419.239,324.31 C419.239,324.31,419.239,314.624,419.239,314.624 z"/>
          <path style="fill:none;opacity:1;stroke:#000000;stroke-linecap:butt;stroke-linejoin:miter;stroke-miterlimit:10;stroke-opacity:1;stroke-width:0;" d="M303.745,361.387 C303.745,364.502,302.199,366.06,299.107,366.06 C297.733,366.06,296.616,365.642,295.757,364.806 C294.898,363.969,294.469,362.864,294.469,361.49 C294.469,358.352,296.083,356.783,299.313,356.783 C300.619,356.783,301.684,357.224,302.508,358.106 C303.333,358.988,303.745,360.081,303.745,361.387 z M351.032,369.324 C351.032,369.324,328.692,330.47,328.692,330.47 C328.692,330.47,328.692,369.324,328.692,369.324 C328.692,369.324,318.041,369.324,318.041,369.324 C318.041,369.324,318.041,314.624,318.041,314.624 C318.041,314.624,330.028,314.624,330.028,314.624 C330.028,314.624,351.811,352.81,351.811,352.81 C351.811,352.81,351.811,314.624,351.811,314.624 C351.811,314.624,362.461,314.624,362.461,314.624 C362.461,314.624,362.461,369.324,362.461,369.324 C362.461,369.324,351.032,369.324,351.032,369.324 z M414.897,359.49 C414.897,359.49,414.897,369.324,414.897,369.324 C414.897,369.324,373.446,369.324,373.446,369.324 C373.446,369.324,373.446,314.624,373.446,314.624 C373.446,314.624,413.561,314.624,413.561,314.624 C413.561,314.624,413.561,324.31,413.561,324.31 C413.561,324.31,384.616,324.31,384.616,324.31 C384.616,324.31,384.616,335.925,384.616,335.925 C384.616,335.925,411.186,335.925,411.186,335.925 C411.186,335.925,411.186,345.425,411.186,345.425 C411.186,345.425,384.616,345.425,384.616,345.425 C384.616,345.425,384.616,359.49,384.616,359.49 C384.616,359.49,414.897,359.49,414.897,359.49 z M419.239,314.624 C419.239,314.624,463.547,314.624,463.547,314.624 C463.547,314.624,463.547,324.31,463.547,324.31 C463.547,324.31,447.182,324.31,447.182,324.31 C447.182,324.31,447.182,369.324,447.182,369.324 C447.182,369.324,435.678,369.324,435.678,369.324 C435.678,369.324,435.678,324.31,435.678,324.31 C435.678,324.31,419.239,324.31,419.239,324.31 C419.239,324.31,419.239,314.624,419.239,314.624 z"/>
        </g>
      </g>
      <g id="am56">
        <g id="am58">
          <path style="fill:#474749;fill-opacity:1;fill-rule:nonzero;opacity:1;stroke:none;" d="M24.3731,233.174 C24.3731,233.174,24.3731,233.622,24.3731,233.622 C24.3731,233.622,24.4,233.622,24.4,233.622 C24.4,233.622,24.4,233.721,24.4,233.721 C24.4,233.721,24.3617,233.721,24.3617,233.721 C24.3617,233.721,24.3617,233.174,24.3617,233.174 C24.3617,233.174,24.3731,233.174,24.3731,233.174 z M24.4405,233.367 C24.4439,233.41,24.4456,233.461,24.4456,233.519 C24.4456,233.579,24.4439,233.629,24.4405,233.672 C24.4371,233.714,24.4319,233.735,24.425,233.735 C24.4181,233.735,24.413,233.714,24.4096,233.672 C24.4062,233.629,24.4045,233.579,24.4045,233.519 C24.4045,233.461,24.4062,233.41,24.4096,233.367 C24.413,233.325,24.4181,233.303,24.425,233.303 C24.4319,233.303,24.4371,233.325,24.4405,233.367 z M24.4321,233.425 C24.4304,233.404,24.4281,233.393,24.425,233.393 C24.4219,233.393,24.4196,233.404,24.4179,233.426 C24.4163,233.447,24.4154,233.479,24.4154,233.519 C24.4154,233.56,24.4163,233.591,24.4179,233.613 C24.4196,233.635,24.4219,233.646,24.425,233.646 C24.4281,233.646,24.4304,233.635,24.4321,233.613 C24.4337,233.591,24.4346,233.56,24.4346,233.519 C24.4346,233.479,24.4337,233.447,24.4321,233.425 z M24.4745,233.414 C24.474,233.414,24.4736,233.414,24.4733,233.414 C24.4691,233.414,24.4662,233.428,24.4648,233.455 C24.464,233.471,24.4636,233.495,24.4636,233.527 C24.4636,233.527,24.4636,233.721,24.4636,233.721 C24.4636,233.721,24.453,233.721,24.453,233.721 C24.453,233.721,24.453,233.316,24.453,233.316 C24.453,233.316,24.463,233.316,24.463,233.316 C24.463,233.316,24.463,233.387,24.463,233.387 C24.4646,233.36,24.466,233.341,24.4672,233.331 C24.4692,233.315,24.4718,233.307,24.4749,233.307 C24.4751,233.307,24.4753,233.307,24.4754,233.307 C24.4755,233.307,24.4758,233.307,24.4763,233.307 C24.4763,233.307,24.4763,233.416,24.4763,233.416 C24.4756,233.415,24.4751,233.414,24.4745,233.414 z M24.4987,233.734 C24.4936,233.734,24.4891,233.718,24.4852,233.684 C24.4812,233.651,24.4793,233.597,24.4793,233.523 C24.4793,233.453,24.4811,233.399,24.4846,233.362 C24.4881,233.324,24.4927,233.305,24.4983,233.305 C24.5016,233.305,24.5047,233.312,24.5073,233.324 C24.51,233.337,24.5122,233.357,24.514,233.384 C24.5155,233.408,24.5166,233.436,24.517,233.468 C24.5173,233.486,24.5174,233.513,24.5174,233.548 C24.5174,233.548,24.4899,233.548,24.4899,233.548 C24.49,233.588,24.4913,233.617,24.4937,233.633 C24.4951,233.643,24.4969,233.648,24.4989,233.648 C24.5011,233.648,24.5028,233.642,24.5042,233.63 C24.5049,233.623,24.5056,233.614,24.5061,233.602 C24.5061,233.602,24.5168,233.602,24.5168,233.602 C24.5166,233.626,24.5153,233.65,24.5131,233.675 C24.5097,233.714,24.5049,233.734,24.4987,233.734 z M24.4983,233.393 C24.4959,233.393,24.494,233.4,24.4927,233.416 C24.4913,233.431,24.4905,233.452,24.4901,233.478 C24.4901,233.478,24.5065,233.478,24.5065,233.478 C24.5063,233.45,24.5054,233.429,24.5039,233.414 C24.5024,233.4,24.5005,233.393,24.4983,233.393 z M24.547,233.428 C24.5461,233.408,24.5444,233.398,24.5418,233.398 C24.5388,233.398,24.5368,233.408,24.5358,233.428 C24.5352,233.439,24.5349,233.455,24.5349,233.477 C24.5349,233.477,24.5349,233.721,24.5349,233.721 C24.5349,233.721,24.5243,233.721,24.5243,233.721 C24.5243,233.721,24.5243,233.317,24.5243,233.317 C24.5243,233.317,24.5345,233.317,24.5345,233.317 C24.5345,233.317,24.5345,233.376,24.5345,233.376 C24.5358,233.355,24.537,233.34,24.5381,233.331 C24.5402,233.315,24.5428,233.307,24.5461,233.307 C24.5491,233.307,24.5516,233.314,24.5535,233.328 C24.555,233.34,24.5562,233.357,24.557,233.376 C24.5584,233.353,24.5601,233.335,24.5621,233.324 C24.5643,233.313,24.5667,233.307,24.5693,233.307 C24.5711,233.307,24.5728,233.311,24.5746,233.318 C24.5763,233.325,24.5778,233.337,24.5792,233.354 C24.5804,233.368,24.5811,233.386,24.5815,233.406 C24.5818,233.42,24.5819,233.44,24.5819,233.466 C24.5819,233.466,24.5818,233.721,24.5818,233.721 C24.5818,233.721,24.5711,233.721,24.5711,233.721 C24.5711,233.721,24.5711,233.463,24.5711,233.463 C24.5711,233.448,24.5708,233.435,24.5703,233.425 C24.5694,233.407,24.5677,233.397,24.5652,233.397 C24.5623,233.397,24.5603,233.409,24.5592,233.434 C24.5586,233.446,24.5583,233.462,24.5583,233.48 C24.5583,233.48,24.5583,233.721,24.5583,233.721 C24.5583,233.721,24.5477,233.721,24.5477,233.721 C24.5477,233.721,24.5477,233.48,24.5477,233.48 C24.5477,233.456,24.5475,233.438,24.547,233.428 z M24.6259,233.316 C24.6259,233.316,24.6259,233.721,24.6259,233.721 C24.6259,233.721,24.6152,233.721,24.6152,233.721 C24.6152,233.721,24.6152,233.316,24.6152,233.316 C24.6152,233.316,24.6259,233.316,24.6259,233.316 z M24.6259,233.17 C24.6259,233.17,24.6259,233.268,24.6259,233.268 C24.6259,233.268,24.6152,233.268,24.6152,233.268 C24.6152,233.268,24.6152,233.17,24.6152,233.17 C24.6152,233.17,24.6259,233.17,24.6259,233.17 z M24.6495,233.708 C24.6484,233.699,24.6473,233.686,24.6462,233.669 C24.6462,233.669,24.6462,233.88,24.6462,233.88 C24.6462,233.88,24.6358,233.88,24.6358,233.88 C24.6358,233.88,24.6358,233.316,24.6358,233.316 C24.6358,233.316,24.6458,233.316,24.6458,233.316 C24.6458,233.316,24.6458,233.376,24.6458,233.376 C24.647,233.358,24.6482,233.345,24.6494,233.334 C24.6518,233.316,24.6545,233.307,24.6578,233.307 C24.6625,233.307,24.6664,233.325,24.6697,233.36 C24.6729,233.395,24.6746,233.446,24.6746,233.513 C24.6746,233.585,24.673,233.639,24.6698,233.676 C24.6666,233.714,24.6625,233.732,24.6575,233.732 C24.6543,233.732,24.6517,233.724,24.6495,233.708 z M24.6547,233.644 C24.6577,233.644,24.6599,233.632,24.6614,233.609 C24.663,233.587,24.6637,233.556,24.6637,233.518 C24.6637,233.487,24.663,233.46,24.6616,233.436 C24.6602,233.412,24.6579,233.4,24.6547,233.4 C24.6509,233.4,24.6483,233.418,24.6469,233.454 C24.6462,233.474,24.6458,233.498,24.6458,233.528 C24.6458,233.575,24.647,233.608,24.6495,233.627 C24.651,233.638,24.6527,233.644,24.6547,233.644 z M24.6928,233.396 C24.6919,233.404,24.6914,233.412,24.6914,233.422 C24.6914,233.434,24.6919,233.443,24.6929,233.448 C24.694,233.454,24.6976,233.463,24.7039,233.477 C24.708,233.487,24.7112,233.502,24.7133,233.522 C24.7153,233.542,24.7164,233.568,24.7164,233.598 C24.7164,233.638,24.7149,233.671,24.7119,233.696 C24.709,233.722,24.7044,233.734,24.6982,233.734 C24.6919,233.734,24.6872,233.721,24.6842,233.694 C24.6812,233.667,24.6797,233.633,24.6797,233.592 C24.6797,233.592,24.6903,233.592,24.6903,233.592 C24.6906,233.61,24.691,233.624,24.6918,233.632 C24.6931,233.646,24.6955,233.653,24.699,233.653 C24.7011,233.653,24.7027,233.65,24.7039,233.644 C24.7051,233.637,24.7057,233.628,24.7057,233.616 C24.7057,233.604,24.7053,233.595,24.7043,233.589 C24.7033,233.582,24.6996,233.572,24.6933,233.557 C24.6888,233.545,24.6856,233.531,24.6837,233.514 C24.6818,233.497,24.6809,233.473,24.6809,233.441 C24.6809,233.404,24.6824,233.372,24.6853,233.345 C24.6882,233.318,24.6923,233.305,24.6976,233.305 C24.7026,233.305,24.7067,233.315,24.7098,233.335 C24.713,233.355,24.7148,233.39,24.7153,233.439 C24.7153,233.439,24.7048,233.439,24.7048,233.439 C24.7046,233.426,24.7042,233.415,24.7036,233.407 C24.7025,233.393,24.7005,233.386,24.6977,233.386 C24.6954,233.386,24.6938,233.389,24.6928,233.396 z M24.7495,233.536 C24.7495,233.536,24.7495,233.316,24.7495,233.316 C24.7495,233.316,24.7601,233.316,24.7601,233.316 C24.7601,233.316,24.7601,233.721,24.7601,233.721 C24.7601,233.721,24.7499,233.721,24.7499,233.721 C24.7499,233.721,24.7499,233.664,24.7499,233.664 C24.7498,233.665,24.7495,233.669,24.7492,233.675 C24.7488,233.681,24.7483,233.686,24.7478,233.691 C24.7461,233.706,24.7445,233.716,24.743,233.721 C24.7414,233.727,24.7396,233.73,24.7376,233.73 C24.7316,233.73,24.7276,233.708,24.7256,233.665 C24.7244,233.641,24.7238,233.606,24.7238,233.56 C24.7238,233.56,24.7238,233.316,24.7238,233.316 C24.7238,233.316,24.7346,233.316,24.7346,233.316 C24.7346,233.316,24.7346,233.56,24.7346,233.56 C24.7346,233.583,24.7349,233.6,24.7354,233.612 C24.7364,233.633,24.7382,233.643,24.741,233.643 C24.7446,233.643,24.7471,233.628,24.7484,233.599 C24.7491,233.583,24.7495,233.562,24.7495,233.536 z M24.7928,233.428 C24.7919,233.408,24.7902,233.398,24.7876,233.398 C24.7846,233.398,24.7826,233.408,24.7815,233.428 C24.781,233.439,24.7807,233.455,24.7807,233.477 C24.7807,233.477,24.7807,233.721,24.7807,233.721 C24.7807,233.721,24.7701,233.721,24.7701,233.721 C24.7701,233.721,24.7701,233.317,24.7701,233.317 C24.7701,233.317,24.7803,233.317,24.7803,233.317 C24.7803,233.317,24.7803,233.376,24.7803,233.376 C24.7816,233.355,24.7828,233.34,24.7839,233.331 C24.786,233.315,24.7886,233.307,24.7919,233.307 C24.7949,233.307,24.7974,233.314,24.7993,233.328 C24.8008,233.34,24.802,233.357,24.8028,233.376 C24.8042,233.353,24.8059,233.335,24.8079,233.324 C24.8101,233.313,24.8125,233.307,24.8151,233.307 C24.8169,233.307,24.8186,233.311,24.8204,233.318 C24.8221,233.325,24.8236,233.337,24.825,233.354 C24.8262,233.368,24.8269,233.386,24.8273,233.406 C24.8276,233.42,24.8277,233.44,24.8277,233.466 C24.8277,233.466,24.8276,233.721,24.8276,233.721 C24.8276,233.721,24.8169,233.721,24.8169,233.721 C24.8169,233.721,24.8169,233.463,24.8169,233.463 C24.8169,233.448,24.8166,233.435,24.8161,233.425 C24.8152,233.407,24.8135,233.397,24.811,233.397 C24.8081,233.397,24.8061,233.409,24.805,233.434 C24.8044,233.446,24.8041,233.462,24.8041,233.48 C24.8041,233.48,24.8041,233.721,24.8041,233.721 C24.8041,233.721,24.7935,233.721,24.7935,233.721 C24.7935,233.721,24.7935,233.48,24.7935,233.48 C24.7935,233.456,24.7933,233.438,24.7928,233.428 z M24.8821,233.717 C24.8802,233.728,24.8778,233.733,24.875,233.733 C24.8703,233.733,24.8663,233.714,24.8631,233.676 C24.8599,233.638,24.8583,233.589,24.8583,233.529 C24.8583,233.46,24.8599,233.406,24.863,233.366 C24.8662,233.326,24.8704,233.307,24.8757,233.307 C24.8781,233.307,24.8803,233.312,24.8822,233.323 C24.8841,233.334,24.8856,233.348,24.8868,233.367 C24.8868,233.367,24.8868,233.174,24.8868,233.174 C24.8868,233.174,24.8974,233.174,24.8974,233.174 C24.8974,233.174,24.8974,233.721,24.8974,233.721 C24.8974,233.721,24.8872,233.721,24.8872,233.721 C24.8872,233.721,24.8872,233.665,24.8872,233.665 C24.8857,233.689,24.884,233.706,24.8821,233.717 z M24.8781,233.399 C24.875,233.399,24.8727,233.411,24.8713,233.434 C24.8699,233.457,24.8691,233.486,24.8691,233.521 C24.8691,233.558,24.8699,233.588,24.8713,233.611 C24.8728,233.633,24.875,233.644,24.878,233.644 C24.881,233.644,24.8832,233.633,24.8848,233.611 C24.8863,233.589,24.8871,233.56,24.8871,233.524 C24.8871,233.475,24.8858,233.44,24.8834,233.418 C24.8818,233.405,24.8801,233.399,24.8781,233.399 z M24.9405,233.367 C24.9439,233.41,24.9456,233.461,24.9456,233.519 C24.9456,233.579,24.9439,233.629,24.9405,233.672 C24.9371,233.714,24.9319,233.735,24.925,233.735 C24.9181,233.735,24.913,233.714,24.9096,233.672 C24.9062,233.629,24.9045,233.579,24.9045,233.519 C24.9045,233.461,24.9062,233.41,24.9096,233.367 C24.913,233.325,24.9181,233.303,24.925,233.303 C24.9319,233.303,24.9371,233.325,24.9405,233.367 z M24.9321,233.425 C24.9304,233.404,24.9281,233.393,24.925,233.393 C24.9219,233.393,24.9196,233.404,24.9179,233.426 C24.9163,233.447,24.9154,233.479,24.9154,233.519 C24.9154,233.56,24.9163,233.591,24.9179,233.613 C24.9196,233.635,24.9219,233.646,24.925,233.646 C24.9281,233.646,24.9304,233.635,24.9321,233.613 C24.9337,233.591,24.9346,233.56,24.9346,233.519 C24.9346,233.479,24.9337,233.447,24.9321,233.425 z M24.9533,233.174 C24.9533,233.174,24.9638,233.174,24.9638,233.174 C24.9638,233.174,24.9638,233.721,24.9638,233.721 C24.9638,233.721,24.9533,233.721,24.9533,233.721 C24.9533,233.721,24.9533,233.174,24.9533,233.174 z M25.0076,233.367 C25.011,233.41,25.0126,233.461,25.0126,233.519 C25.0126,233.579,25.011,233.629,25.0076,233.672 C25.0042,233.714,24.999,233.735,24.9921,233.735 C24.9852,233.735,24.9801,233.714,24.9767,233.672 C24.9733,233.629,24.9716,233.579,24.9716,233.519 C24.9716,233.461,24.9733,233.41,24.9767,233.367 C24.9801,233.325,24.9852,233.303,24.9921,233.303 C24.999,233.303,25.0042,233.325,25.0076,233.367 z M24.9992,233.425 C24.9975,233.404,24.9952,233.393,24.9921,233.393 C24.989,233.393,24.9866,233.404,24.985,233.426 C24.9833,233.447,24.9825,233.479,24.9825,233.519 C24.9825,233.56,24.9833,233.591,24.985,233.613 C24.9866,233.635,24.989,233.646,24.9921,233.646 C24.9952,233.646,24.9975,233.635,24.9992,233.613 C25.0008,233.591,25.0016,233.56,25.0016,233.519 C25.0016,233.479,25.0008,233.447,24.9992,233.425 z M25.0416,233.414 C25.0411,233.414,25.0407,233.414,25.0404,233.414 C25.0361,233.414,25.0333,233.428,25.0318,233.455 C25.031,233.471,25.0306,233.495,25.0306,233.527 C25.0306,233.527,25.0306,233.721,25.0306,233.721 C25.0306,233.721,25.0201,233.721,25.0201,233.721 C25.0201,233.721,25.0201,233.316,25.0201,233.316 C25.0201,233.316,25.0301,233.316,25.0301,233.316 C25.0301,233.316,25.0301,233.387,25.0301,233.387 C25.0317,233.36,25.0331,233.341,25.0343,233.331 C25.0363,233.315,25.0388,233.307,25.042,233.307 C25.0422,233.307,25.0423,233.307,25.0425,233.307 C25.0426,233.307,25.0429,233.307,25.0434,233.307 C25.0434,233.307,25.0434,233.416,25.0434,233.416 C25.0427,233.415,25.0421,233.414,25.0416,233.414 z M25.0838,233.396 C25.0828,233.404,25.0823,233.412,25.0823,233.422 C25.0823,233.434,25.0828,233.443,25.0838,233.448 C25.0849,233.454,25.0885,233.463,25.0948,233.477 C25.099,233.487,25.1021,233.502,25.1042,233.522 C25.1062,233.542,25.1073,233.568,25.1073,233.598 C25.1073,233.638,25.1058,233.671,25.1028,233.696 C25.0999,233.722,25.0953,233.734,25.0891,233.734 C25.0828,233.734,25.0781,233.721,25.0751,233.694 C25.0721,233.667,25.0706,233.633,25.0706,233.592 C25.0706,233.592,25.0813,233.592,25.0813,233.592 C25.0815,233.61,25.082,233.624,25.0827,233.632 C25.084,233.646,25.0864,233.653,25.0899,233.653 C25.092,233.653,25.0936,233.65,25.0948,233.644 C25.0961,233.637,25.0967,233.628,25.0967,233.616 C25.0967,233.604,25.0962,233.595,25.0952,233.589 C25.0942,233.582,25.0906,233.572,25.0842,233.557 C25.0797,233.545,25.0765,233.531,25.0746,233.514 C25.0728,233.497,25.0718,233.473,25.0718,233.441 C25.0718,233.404,25.0733,233.372,25.0762,233.345 C25.0791,233.318,25.0832,233.305,25.0885,233.305 C25.0935,233.305,25.0976,233.315,25.1007,233.335 C25.1039,233.355,25.1057,233.39,25.1062,233.439 C25.1062,233.439,25.0957,233.439,25.0957,233.439 C25.0955,233.426,25.0951,233.415,25.0945,233.407 C25.0934,233.393,25.0914,233.386,25.0886,233.386 C25.0863,233.386,25.0847,233.389,25.0838,233.396 z M25.1258,233.316 C25.1258,233.316,25.1258,233.721,25.1258,233.721 C25.1258,233.721,25.1152,233.721,25.1152,233.721 C25.1152,233.721,25.1152,233.316,25.1152,233.316 C25.1152,233.316,25.1258,233.316,25.1258,233.316 z M25.1258,233.17 C25.1258,233.17,25.1258,233.268,25.1258,233.268 C25.1258,233.268,25.1152,233.268,25.1152,233.268 C25.1152,233.268,25.1152,233.17,25.1152,233.17 C25.1152,233.17,25.1258,233.17,25.1258,233.17 z M25.1485,233.64 C25.1489,233.644,25.1502,233.646,25.1523,233.646 C25.1527,233.646,25.153,233.646,25.1534,233.646 C25.1537,233.646,25.1541,233.646,25.1544,233.645 C25.1544,233.645,25.1544,233.724,25.1544,233.724 C25.1544,233.724,25.1494,233.726,25.1494,233.726 C25.1445,233.728,25.1411,233.719,25.1393,233.7 C25.1381,233.688,25.1375,233.67,25.1375,233.644 C25.1375,233.644,25.1375,233.395,25.1375,233.395 C25.1375,233.395,25.1319,233.395,25.1319,233.395 C25.1319,233.395,25.1319,233.32,25.1319,233.32 C25.1319,233.32,25.1375,233.32,25.1375,233.32 C25.1375,233.32,25.1375,233.207,25.1375,233.207 C25.1375,233.207,25.1479,233.207,25.1479,233.207 C25.1479,233.207,25.1479,233.32,25.1479,233.32 C25.1479,233.32,25.1544,233.32,25.1544,233.32 C25.1544,233.32,25.1544,233.395,25.1544,233.395 C25.1544,233.395,25.1479,233.395,25.1479,233.395 C25.1479,233.395,25.1479,233.609,25.1479,233.609 C25.1479,233.626,25.1481,233.636,25.1485,233.64 z M25.1877,233.505 C25.1898,233.493,25.1928,233.484,25.1969,233.479 C25.1969,233.479,25.2005,233.475,25.2005,233.475 C25.2024,233.472,25.2038,233.469,25.2046,233.465 C25.2061,233.459,25.2069,233.449,25.2069,233.435 C25.2069,233.419,25.2063,233.407,25.2052,233.401 C25.204,233.395,25.2023,233.392,25.2001,233.392 C25.1977,233.392,25.1959,233.398,25.1949,233.41 C25.1941,233.419,25.1936,233.432,25.1934,233.447 C25.1934,233.447,25.1833,233.447,25.1833,233.447 C25.1835,233.412,25.1845,233.383,25.1862,233.36 C25.189,233.324,25.1938,233.307,25.2005,233.307 C25.2049,233.307,25.2088,233.315,25.2122,233.333 C25.2156,233.351,25.2173,233.384,25.2173,233.432 C25.2173,233.432,25.2173,233.618,25.2173,233.618 C25.2173,233.631,25.2174,233.646,25.2174,233.665 C25.2175,233.679,25.2177,233.688,25.218,233.693 C25.2184,233.698,25.2189,233.702,25.2196,233.705 C25.2196,233.705,25.2196,233.721,25.2196,233.721 C25.2196,233.721,25.2082,233.721,25.2082,233.721 C25.2079,233.713,25.2076,233.705,25.2075,233.698 C25.2074,233.691,25.2073,233.682,25.2072,233.673 C25.2058,233.689,25.2041,233.703,25.2022,233.714 C25.1999,233.727,25.1974,233.733,25.1945,233.733 C25.1909,233.733,25.1879,233.723,25.1855,233.702 C25.1832,233.681,25.182,233.651,25.182,233.613 C25.182,233.563,25.1839,233.527,25.1877,233.505 z M25.2039,233.637 C25.2058,233.623,25.2068,233.599,25.2068,233.563 C25.2068,233.563,25.2068,233.524,25.2068,233.524 C25.2062,233.528,25.2055,233.532,25.2048,233.534 C25.2042,233.537,25.2032,233.539,25.2021,233.542 C25.2021,233.542,25.1997,233.546,25.1997,233.546 C25.1975,233.55,25.1959,233.555,25.1949,233.56 C25.1933,233.57,25.1925,233.585,25.1925,233.605 C25.1925,233.623,25.193,233.636,25.194,233.644 C25.195,233.653,25.1962,233.657,25.1976,233.657 C25.1999,233.657,25.202,233.65,25.2039,233.637 z M25.2492,233.428 C25.2483,233.408,25.2466,233.398,25.244,233.398 C25.241,233.398,25.239,233.408,25.238,233.428 C25.2374,233.439,25.2371,233.455,25.2371,233.477 C25.2371,233.477,25.2371,233.721,25.2371,233.721 C25.2371,233.721,25.2265,233.721,25.2265,233.721 C25.2265,233.721,25.2265,233.317,25.2265,233.317 C25.2265,233.317,25.2367,233.317,25.2367,233.317 C25.2367,233.317,25.2367,233.376,25.2367,233.376 C25.238,233.355,25.2392,233.34,25.2404,233.331 C25.2424,233.315,25.2451,233.307,25.2483,233.307 C25.2514,233.307,25.2539,233.314,25.2557,233.328 C25.2573,233.34,25.2584,233.357,25.2592,233.376 C25.2606,233.353,25.2623,233.335,25.2643,233.324 C25.2665,233.313,25.2689,233.307,25.2716,233.307 C25.2733,233.307,25.2751,233.311,25.2768,233.318 C25.2785,233.325,25.2801,233.337,25.2815,233.354 C25.2826,233.368,25.2834,233.386,25.2838,233.406 C25.284,233.42,25.2841,233.44,25.2841,233.466 C25.2841,233.466,25.284,233.721,25.284,233.721 C25.284,233.721,25.2733,233.721,25.2733,233.721 C25.2733,233.721,25.2733,233.463,25.2733,233.463 C25.2733,233.448,25.273,233.435,25.2726,233.425 C25.2716,233.407,25.2699,233.397,25.2674,233.397 C25.2645,233.397,25.2625,233.409,25.2614,233.434 C25.2608,233.446,25.2605,233.462,25.2605,233.48 C25.2605,233.48,25.2605,233.721,25.2605,233.721 C25.2605,233.721,25.25,233.721,25.25,233.721 C25.25,233.721,25.25,233.48,25.25,233.48 C25.25,233.456,25.2497,233.438,25.2492,233.428 z M25.31,233.734 C25.3049,233.734,25.3004,233.718,25.2965,233.684 C25.2926,233.651,25.2906,233.597,25.2906,233.523 C25.2906,233.453,25.2924,233.399,25.2959,233.362 C25.2994,233.324,25.304,233.305,25.3096,233.305 C25.313,233.305,25.316,233.312,25.3187,233.324 C25.3213,233.337,25.3235,233.357,25.3253,233.384 C25.3269,233.408,25.3279,233.436,25.3283,233.468 C25.3286,233.486,25.3287,233.513,25.3287,233.548 C25.3287,233.548,25.3012,233.548,25.3012,233.548 C25.3013,233.588,25.3026,233.617,25.305,233.633 C25.3064,233.643,25.3082,233.648,25.3102,233.648 C25.3124,233.648,25.3141,233.642,25.3155,233.63 C25.3162,233.623,25.3169,233.614,25.3174,233.602 C25.3174,233.602,25.3282,233.602,25.3282,233.602 C25.3279,233.626,25.3267,233.65,25.3244,233.675 C25.321,233.714,25.3162,233.734,25.31,233.734 z M25.3096,233.393 C25.3072,233.393,25.3053,233.4,25.304,233.416 C25.3026,233.431,25.3018,233.452,25.3014,233.478 C25.3014,233.478,25.3178,233.478,25.3178,233.478 C25.3176,233.45,25.3168,233.429,25.3152,233.414 C25.3137,233.4,25.3119,233.393,25.3096,233.393 z M25.3482,233.64 C25.3487,233.644,25.3499,233.646,25.3521,233.646 C25.3524,233.646,25.3527,233.646,25.3531,233.646 C25.3534,233.646,25.3538,233.646,25.3541,233.645 C25.3541,233.645,25.3541,233.724,25.3541,233.724 C25.3541,233.724,25.3492,233.726,25.3492,233.726 C25.3442,233.728,25.3408,233.719,25.339,233.7 C25.3378,233.688,25.3372,233.67,25.3372,233.644 C25.3372,233.644,25.3372,233.395,25.3372,233.395 C25.3372,233.395,25.3316,233.395,25.3316,233.395 C25.3316,233.395,25.3316,233.32,25.3316,233.32 C25.3316,233.32,25.3372,233.32,25.3372,233.32 C25.3372,233.32,25.3372,233.207,25.3372,233.207 C25.3372,233.207,25.3476,233.207,25.3476,233.207 C25.3476,233.207,25.3476,233.32,25.3476,233.32 C25.3476,233.32,25.3541,233.32,25.3541,233.32 C25.3541,233.32,25.3541,233.395,25.3541,233.395 C25.3541,233.395,25.3476,233.395,25.3476,233.395 C25.3476,233.395,25.3476,233.609,25.3476,233.609 C25.3476,233.626,25.3478,233.636,25.3482,233.64 z"/>
        </g>
      </g>
    </g>
  </g>
</svg>
